<?xml version="1.0" standalone="no"?>
<!DOCTYPE svg PUBLIC "-//W3C//DTD SVG 20010904//EN"
 "http://www.w3.org/TR/2001/REC-SVG-20010904/DTD/svg10.dtd">
<svg version="1.0" xmlns="http://www.w3.org/2000/svg"
  viewBox="0 0 1000 1000"
 preserveAspectRatio="xMidYMid meet">

<g transform="translate(0.000000,1000.000000) scale(0.100000,-0.100000)"
fill="currentColor" stroke="none">
<path d="M0 5000 l0 -5000 5000 0 5000 0 0 5000 0 5000 -5000 0 -5000 0 0
-5000z m9820 3695 l0 -1095 -4805 0 -4805 0 0 1095 0 1095 4805 0 4805 0 0
-1095z m0 -4885 l0 -3590 -4805 0 -4805 0 0 3590 0 3590 4805 0 4805 0 0
-3590z" fill='currentColor'/>
<path d="M1746 8949 c-121 -20 -249 -120 -304 -236 -25 -53 -27 -69 -27 -178
0 -114 2 -123 32 -187 41 -86 109 -155 198 -199 67 -33 74 -34 185 -34 114 0
117 1 192 38 127 62 208 172 227 309 34 241 -112 451 -340 488 -72 11 -93 11
-163 -1z m173 -257 c54 -40 66 -68 66 -157 0 -90 -11 -116 -69 -159 -39 -29
-133 -29 -173 0 -81 58 -97 213 -30 289 46 54 151 67 206 27z" fill="currentColor"/>
<path d="M4651 8949 c-69 -12 -182 -71 -225 -119 -149 -165 -154 -421 -10
-580 181 -200 519 -184 667 32 58 85 71 128 71 254 1 108 0 112 -36 186 -60
119 -157 196 -284 223 -77 16 -104 17 -183 4z m173 -257 c93 -54 95 -249 4
-315 -39 -29 -123 -33 -168 -9 -95 52 -113 228 -31 306 15 15 41 31 57 36 38
12 101 4 138 -18z" fill='currentColor'/>
<path d="M3726 8939 c-62 -15 -155 -69 -192 -113 -136 -159 -136 -434 1 -594
23 -26 64 -55 113 -79 75 -37 78 -38 191 -38 109 0 120 2 182 31 37 18 85 49
108 69 42 38 96 135 107 193 l7 32 -136 0 -135 0 -26 -35 c-48 -63 -147 -72
-199 -17 -35 37 -47 73 -47 142 0 69 12 105 47 142 52 55 150 46 200 -17 l28
-35 134 0 134 0 -7 32 c-27 134 -135 247 -271 283 -64 16 -177 18 -239 4z" fill="currentColor"/>
<path d="M1060 8662 c0 -235 -2 -281 -16 -300 -28 -41 -79 -19 -91 39 l-5 29
-130 0 -130 0 6 -27 c2 -16 8 -46 11 -68 14 -82 69 -152 155 -195 63 -32 206
-40 280 -15 68 22 121 71 151 138 23 50 24 61 27 365 l4 312 -131 0 -131 0 0
-278z" fill='currentColor'/>
<path d="M2350 8530 l0 -410 130 0 130 0 0 203 1 202 132 -202 132 -202 133
-1 132 0 0 410 0 410 -130 0 -130 0 -2 -204 -3 -204 -130 202 -131 201 -132 3
-132 3 0 -411z" fill='currentColor'/>
<path d="M5250 8530 l0 -410 255 0 255 0 0 95 0 94 -122 3 -123 3 -3 313 -2
312 -130 0 -130 0 0 -410z" fill='currentColor'/>
<path d="M5840 8530 l0 -410 275 0 275 0 0 100 0 99 -142 3 -143 3 0 55 0 55
128 3 127 3 0 94 0 94 -127 3 -128 3 0 50 0 50 143 3 142 3 0 99 0 100 -275 0
-275 0 0 -410z" fill='currentColor'/>
<path d="M6490 8530 l0 -410 130 0 130 0 0 193 c0 107 4 185 9 177 5 -8 32
-95 62 -193 l54 -177 115 2 114 3 61 195 60 195 3 -197 2 -198 130 0 130 0 0
410 0 410 -162 -2 -163 -3 -85 -237 c-46 -130 -87 -235 -90 -232 -3 3 -43 110
-90 237 l-86 232 -162 3 -162 2 0 -410z" fill='currentColor'/>
<path d="M7696 8538 c-80 -222 -146 -406 -146 -410 0 -5 60 -8 134 -8 l134 0
20 58 19 57 138 0 139 0 17 -55 16 -55 137 -3 c75 -1 136 1 136 5 0 4 -66 189
-146 411 l-147 402 -152 0 -152 0 -147 -402z m334 13 c16 -54 30 -101 30 -105
0 -3 -31 -6 -69 -6 l-70 0 36 105 c19 58 36 105 38 105 2 0 18 -44 35 -99z" fill='currentColor'/>
<path d="M8500 8530 l0 -410 130 0 130 0 2 203 3 202 134 -202 133 -203 134 0
134 0 0 410 0 410 -130 0 -130 0 0 -200 c0 -110 -3 -200 -7 -200 -5 0 -66 90
-137 200 l-129 200 -134 0 -133 0 0 -410z" fill='currentColor'/>
<path d="M4896 7059 c-60 -47 -56 39 -56 -1366 l0 -1289 -271 -189 c-148 -105
-297 -209 -330 -233 -33 -23 -63 -40 -68 -38 -5 3 -11 29 -15 58 -4 29 -30
172 -57 317 l-49 264 9 176 c25 479 -51 823 -219 991 -149 149 -391 171 -625
56 -38 -19 -113 -51 -165 -72 -323 -126 -688 -353 -980 -610 -545 -479 -896
-1090 -1040 -1809 -47 -240 -61 -389 -84 -920 -9 -214 24 -675 60 -853 41
-200 113 -379 192 -479 56 -71 136 -129 224 -164 65 -25 86 -28 184 -29 98 0
129 5 285 44 261 67 305 71 714 71 387 -1 523 -11 792 -61 73 -13 154 -24 180
-24 109 0 238 58 332 149 199 194 320 532 373 1051 16 159 16 694 0 895 -15
182 -49 500 -61 575 -7 39 -6 58 2 67 11 10 488 347 669 472 43 29 83 51 90
48 7 -2 187 -127 400 -276 212 -149 391 -271 397 -271 15 0 14 -11 -9 -207
-40 -350 -53 -561 -53 -883 0 -258 4 -347 21 -490 58 -486 172 -790 364 -976
78 -76 138 -112 232 -139 71 -21 135 -17 336 18 80 14 222 33 316 41 224 21
655 21 826 1 137 -16 135 -15 344 -69 237 -60 392 -48 530 43 203 132 308 389
359 880 32 303 16 987 -31 1301 -89 601 -310 1120 -675 1581 -102 130 -383
411 -509 510 -281 221 -594 408 -847 505 -54 20 -128 52 -165 71 -285 141
-535 105 -690 -99 -83 -110 -144 -296 -168 -510 -11 -110 -12 -416 -2 -525 8
-73 -1 -131 -72 -483 -9 -41 -23 -120 -31 -175 -9 -55 -18 -102 -21 -104 -2
-3 -17 4 -32 15 -35 26 -366 259 -549 387 l-143 100 0 1289 c0 1406 4 1320
-56 1367 -19 15 -41 21 -79 21 -38 0 -60 -6 -79 -21z m1749 -1484 c44 -18 141
-59 215 -90 769 -320 1378 -913 1676 -1632 193 -463 265 -939 251 -1658 -7
-396 -39 -636 -108 -816 -90 -234 -198 -275 -518 -195 -199 50 -295 64 -529
78 -323 19 -755 -10 -1076 -72 -63 -12 -121 -18 -140 -15 -202 43 -358 394
-410 926 l-13 133 88 204 c49 113 91 207 94 210 15 15 169 -203 231 -327 106
-214 149 -419 137 -647 l-6 -100 35 -37 c31 -32 41 -37 81 -37 55 0 100 33
118 87 16 50 6 365 -16 463 -63 286 -215 567 -432 801 l-43 46 38 86 c20 48
43 87 50 87 21 0 361 -346 456 -465 212 -265 337 -501 375 -711 14 -72 33
-102 78 -120 65 -27 146 14 159 81 8 44 -18 173 -56 276 -64 173 -203 414
-324 563 -26 32 -44 62 -39 66 36 34 272 40 383 9 133 -37 203 -80 323 -202
64 -64 120 -112 137 -117 94 -27 178 73 136 162 -22 47 -135 168 -207 224
-250 193 -575 243 -900 139 l-56 -18 -131 129 c-72 71 -155 149 -186 174 -30
25 -55 48 -56 51 0 3 14 36 30 73 l30 66 53 0 c77 0 371 -36 537 -66 292 -52
498 -108 675 -182 146 -61 235 -113 309 -182 73 -68 94 -80 140 -80 25 0 45 9
70 30 69 61 57 129 -37 216 -174 161 -452 284 -857 380 -80 19 -155 34 -167
34 -32 0 -37 17 -14 46 54 69 -4 184 -92 184 -45 0 -161 41 -247 87 -109 59
-240 145 -240 159 0 5 54 30 120 53 l119 44 83 -43 c330 -171 434 -244 501
-350 25 -39 83 -66 122 -56 14 4 39 19 56 34 86 76 25 204 -166 347 -69 52
-234 151 -327 196 -27 13 -48 28 -48 35 0 12 153 86 255 123 33 12 67 28 75
34 91 70 46 217 -65 217 -28 0 -205 -70 -307 -121 -89 -45 -162 -95 -213 -146
-38 -38 -65 -52 -202 -103 -87 -32 -175 -65 -196 -74 -71 -31 -273 -70 -282
-56 -3 4 11 88 30 186 l35 178 -11 135 c-7 82 -9 204 -5 306 16 418 117 622
296 599 25 -3 81 -21 125 -39z m-3047 21 c90 -47 154 -197 182 -426 12 -103
12 -407 0 -510 -8 -67 -5 -95 26 -257 19 -101 33 -187 29 -192 -13 -21 -201
20 -341 74 -62 24 -153 58 -203 76 -74 25 -101 41 -139 78 -84 82 -229 164
-434 245 -77 30 -98 32 -142 11 -79 -38 -88 -147 -16 -202 8 -6 42 -22 75 -34
100 -36 255 -111 255 -123 0 -6 -51 -38 -112 -71 -299 -160 -467 -313 -468
-426 0 -41 40 -92 86 -108 36 -13 44 -12 78 4 22 10 46 32 55 48 31 58 65 89
175 161 102 67 389 226 408 226 13 0 232 -81 241 -90 10 -8 -139 -111 -238
-164 -89 -48 -202 -86 -254 -86 -31 0 -49 -7 -73 -29 -30 -26 -33 -35 -33 -84
0 -45 5 -60 24 -81 l24 -25 -24 -5 c-341 -71 -577 -144 -763 -235 -189 -92
-345 -219 -360 -292 -13 -65 46 -139 111 -139 43 0 79 19 123 65 154 162 578
315 1095 394 187 29 414 53 459 49 37 -3 40 -5 69 -71 l30 -69 -49 -41 c-27
-22 -111 -102 -186 -176 l-138 -135 -67 21 c-38 12 -95 27 -128 34 -86 19
-313 16 -403 -4 -167 -39 -327 -129 -453 -256 -94 -96 -134 -160 -125 -202 15
-74 89 -123 151 -99 15 6 75 59 134 119 82 83 122 116 178 145 97 50 206 76
313 76 85 0 197 -16 213 -30 5 -4 -20 -45 -56 -91 -178 -231 -310 -494 -352
-698 -9 -46 -14 -98 -11 -117 7 -36 52 -80 91 -90 53 -13 129 36 139 90 52
270 160 476 405 776 96 119 414 440 435 440 7 0 29 -39 50 -86 l36 -87 -58
-66 c-246 -281 -371 -526 -423 -829 -21 -126 -26 -352 -9 -414 15 -54 61 -88
117 -88 39 0 50 5 79 36 l34 35 0 161 c0 277 60 483 207 716 44 69 145 201
154 202 4 0 39 -75 79 -168 40 -92 83 -187 95 -212 22 -44 22 -48 10 -175 -47
-484 -186 -827 -368 -906 -54 -23 -54 -23 -207 6 -157 29 -397 54 -617 65
-360 18 -676 -4 -917 -65 -302 -76 -388 -68 -484 40 -150 171 -217 698 -182
1430 13 254 32 422 71 616 170 850 647 1521 1412 1988 95 58 326 172 427 211
47 18 123 50 170 70 47 21 99 42 115 48 44 15 142 14 173 -2z m155 -1623 c32
-3 60 -9 62 -13 6 -10 -79 -137 -124 -183 -59 -63 -89 -73 -256 -86 -82 -7
-179 -16 -215 -21 -35 -5 -66 -8 -68 -6 -2 2 34 24 80 48 46 24 108 60 138 79
77 50 208 157 221 181 9 18 17 20 57 14 26 -3 73 -9 105 -13z m2657 -2 c12
-23 144 -131 220 -180 30 -19 92 -55 138 -79 46 -24 82 -46 80 -48 -2 -2 -33
1 -68 6 -36 5 -132 14 -215 21 -172 13 -201 24 -264 96 -54 60 -122 164 -115
175 3 4 24 9 47 9 23 1 56 5 72 9 57 14 94 11 105 -9z m-2463 -397 c23 -175
52 -456 58 -554 3 -52 8 -114 11 -137 3 -24 1 -43 -4 -43 -4 0 -73 149 -152
332 -131 304 -142 333 -125 342 40 24 112 85 145 123 19 23 39 40 45 39 5 -1
15 -47 22 -102z m2296 -43 c20 -12 37 -26 37 -29 0 -7 -80 -197 -100 -237 -6
-11 -45 -103 -89 -205 -77 -180 -105 -226 -95 -158 2 18 11 114 19 213 14 172
49 469 61 528 l6 28 61 -58 c34 -33 79 -69 100 -82z" fill='currentColor'/>
</g>
</svg>
